<?xml version="1.0" encoding="UTF-8" standalone="no"?>
<!-- Created with Inkscape (http://www.inkscape.org/) -->

<svg
   width="100mm"
   height="100mm"
   viewBox="0 0 100 100"
   version="1.1"
   id="svg5"
   xml:space="preserve"
   sodipodi:docname="fr.svg"
   inkscape:version="1.2.2 (732a01da63, 2022-12-09)"
   xmlns:inkscape="http://www.inkscape.org/namespaces/inkscape"
   xmlns:sodipodi="http://sodipodi.sourceforge.net/DTD/sodipodi-0.dtd"
   xmlns="http://www.w3.org/2000/svg"
   xmlns:svg="http://www.w3.org/2000/svg"><sodipodi:namedview
     id="namedview7"
     pagecolor="#ffffff"
     bordercolor="#000000"
     borderopacity="0.25"
     inkscape:showpageshadow="2"
     inkscape:pageopacity="0.0"
     inkscape:pagecheckerboard="0"
     inkscape:deskcolor="#d1d1d1"
     inkscape:document-units="mm"
     showgrid="false"
     inkscape:zoom="0.71624579"
     inkscape:cx="268.76249"
     inkscape:cy="313.43989"
     inkscape:window-width="1920"
     inkscape:window-height="991"
     inkscape:window-x="-9"
     inkscape:window-y="-9"
     inkscape:window-maximized="1"
     inkscape:current-layer="layer1" /><defs
     id="defs2" /><g
     inkscape:label="Layer 1"
     inkscape:groupmode="layer"
     id="layer1"><path
       id="path7564"
       style="fill:#B5838D;fill-opacity:1;stroke:none;stroke-width:0.898492"
       d="m 49.550755,10.46628 c -2.179026,3.91404 -4.961837,7.4903 -6.622879,11.68041 -6.814709,17.19086 17.537845,19.7406 15.418285,4.49248 -0.34842,-2.50609 -1.3426,-4.94783 -2.49017,-7.18797 -1.66822,-3.25668 -3.783416,-6.3517 -6.305236,-8.98492 z M 33.377888,32.9286 C 34.923662,39.0435 38.297153,42.42819 44.1598,44.60901 42.632649,38.57124 39.142323,35.14427 33.377888,32.9286 Z m 33.244248,0.8985 c -5.625124,1.08913 -9.050504,4.4762 -10.781935,9.88345 5.62505,-1.08907 9.050525,-4.47627 10.781935,-9.88345 z m -37.926264,7.32833 c -6.348409,-0.0301 -12.593335,5.06979 -17.780331,7.94606 v 1.79702 c 5.900845,3.27209 14.243815,10.27035 21.47785,7.28268 7.392789,-3.05327 6.109194,-15.4053 -1.72503,-16.84501 -0.657877,-0.12099 -1.315741,-0.1778 -1.972489,-0.18081 z m 42.606497,0 c -0.656723,0.003 -1.314612,0.0598 -1.972463,0.18082 -7.834235,1.43971 -9.117865,13.79174 -1.72503,16.84501 7.234033,2.98767 15.578723,-4.01059 21.479583,-7.28268 v -1.79703 c -5.18701,-2.87627 -11.43363,-7.97509 -17.78209,-7.94605 z m -21.258484,4.25558 c -0.14873,-7e-4 -0.30091,0.007 -0.45804,0.0201 -4.950798,0.46561 -4.029616,8.27386 0.82656,7.74247 4.666546,-0.51073 4.238116,-7.74234 -0.368519,-7.7635 z m 5.796316,9.97995 c 1.54578,6.11483 4.91927,9.499591 10.781935,11.6804 -1.54765,-6.11901 -5.097775,-9.22576 -10.781935,-11.6804 z M 44.1598,56.28945 c -5.625,1.08904 -9.050533,4.4762 -10.781912,9.88342 5.625003,-1.08911 9.050533,-4.4762 10.781912,-9.88342 z m 6.485985,6.98786 c -5.627866,-0.0729 -11.615461,5.084861 -7.853029,14.576004 1.658622,4.184195 4.579993,7.768345 6.757999,11.680406 2.53007,-2.64157 4.636706,-5.75577 6.377196,-8.98495 1.21332,-2.251375 2.13376,-4.635925 2.43926,-7.187939 0.81474,-6.80618 -3.3442,-10.026901 -7.721426,-10.083521 z" /></g></svg>
