<?xml version="1.0" encoding="UTF-8" standalone="no"?>
<!-- Created with Inkscape (http://www.inkscape.org/) -->

<svg
   width="210mm"
   height="297mm"
   viewBox="0 0 210 297"
   version="1.1"
   id="svg5"
   xml:space="preserve"
   xmlns:inkscape="http://www.inkscape.org/namespaces/inkscape"
   xmlns:sodipodi="http://sodipodi.sourceforge.net/DTD/sodipodi-0.dtd"
   xmlns="http://www.w3.org/2000/svg"
   xmlns:svg="http://www.w3.org/2000/svg"><sodipodi:namedview
     id="namedview7"
     pagecolor="#ffffff"
     bordercolor="#000000"
     borderopacity="0.25"
     inkscape:showpageshadow="2"
     inkscape:pageopacity="0.0"
     inkscape:pagecheckerboard="0"
     inkscape:deskcolor="#d1d1d1"
     inkscape:document-units="mm"
     showgrid="false" /><defs
     id="defs2" /><g
     inkscape:label="Layer 1"
     inkscape:groupmode="layer"
     id="layer1"><path
       id="path7564"
       style="fill:#6f9ceb;fill-opacity:1;stroke:none;stroke-width:0.898492"
       d="m 96.49649,103.5349 c -2.179026,3.91404 -4.961837,7.4903 -6.622879,11.68041 -6.814709,17.19086 17.537849,19.7406 15.418289,4.49248 -0.34842,-2.50609 -1.3426,-4.94783 -2.49017,-7.18797 -1.66822,-3.25668 -3.78342,-6.3517 -6.30524,-8.98492 z m -16.172867,22.46232 c 1.545774,6.1149 4.919265,9.49959 10.781912,11.68041 -1.527151,-6.03777 -5.017477,-9.46474 -10.781912,-11.68041 z m 33.244247,0.8985 c -5.62512,1.08913 -9.0505,4.4762 -10.78193,9.88345 5.62505,-1.08907 9.05052,-4.47627 10.78193,-9.88345 z m -37.926264,7.32833 c -6.348409,-0.0301 -12.593335,5.06979 -17.780331,7.94606 v 1.79702 c 5.900846,3.27209 14.243816,10.27035 21.47785,7.28268 7.39279,-3.05327 6.109194,-15.4053 -1.72503,-16.84501 -0.657877,-0.12099 -1.315741,-0.1778 -1.972489,-0.18081 z m 42.606494,0 c -0.65672,0.003 -1.31461,0.0598 -1.97246,0.18082 -7.83423,1.43971 -9.11786,13.79174 -1.72503,16.84501 7.23403,2.98767 15.57872,-4.01059 21.47958,-7.28268 v -1.79703 c -5.18701,-2.87627 -11.43363,-7.97509 -17.78209,-7.94605 z m -21.25848,4.25558 c -0.14873,-7e-4 -0.30091,0.007 -0.45804,0.0201 -4.950798,0.46561 -4.029616,8.27386 0.82656,7.74247 4.66655,-0.51073 4.23812,-7.74234 -0.36852,-7.7635 z m 5.79632,9.97995 c 1.54578,6.11483 4.91927,9.49959 10.78193,11.6804 -1.54765,-6.11901 -5.09777,-9.22576 -10.78193,-11.6804 z m -11.680405,0.89849 c -5.625,1.08904 -9.050533,4.4762 -10.781912,9.88342 5.625003,-1.08911 9.050533,-4.4762 10.781912,-9.88342 z m 6.485985,6.98786 c -5.627866,-0.0729 -11.615461,5.08486 -7.853029,14.576 1.658622,4.18419 4.579993,7.76834 6.757999,11.68041 2.53007,-2.64158 4.63671,-5.75578 6.3772,-8.98496 1.21332,-2.25137 2.13376,-4.63592 2.43926,-7.18793 0.81474,-6.80618 -3.3442,-10.0269 -7.72143,-10.08352 z" /></g></svg>
